<svg width="588" height="174" viewBox="0 0 588 174" fill="none" xmlns="http://www.w3.org/2000/svg">
<path fill-rule="evenodd" clip-rule="evenodd" d="M185.5 1.84601C174.047 7.13201 171.245 21.165 179.814 30.329C188.916 40.064 208.572 37.105 213.629 25.238C219.052 12.512 209.816 0 195 0C191.764 0 187.853 0.760008 185.5 1.84601ZM370.5 1.099C366.148 2.704 362.024 6.825 359.773 11.819C356.174 19.804 359.478 29.114 367.53 33.674C372.786 36.651 382.415 36.805 387.914 34C400.936 27.357 402.278 10.235 390.355 2.866C386.219 0.309997 375.278 -0.664001 370.5 1.099ZM30.695 23.998C21.191 33.589 3.86299 46.956 0.93399 46.956C0.42099 46.956 0 48.531 0 50.456V53.956H6.448H12.896L13.198 85.706C13.486 115.995 13.599 117.64 15.653 121.456C20.553 130.562 28.322 134.435 41.5 134.343C52.27 134.267 60.675 131.311 68.55 124.83C74.404 120.013 74.716 119.405 72.563 117.026C70.978 115.274 70.795 115.276 67.249 117.084C62.772 119.366 56.934 119.49 52.872 117.39C47.435 114.578 47 111.921 47 81.488V53.956H59H71V49.956V45.956H59.025H47.05L46.775 29.706L46.5 13.456L44 13.275C42.037 13.132 39.178 15.437 30.695 23.998ZM442.479 22.029C433.076 31.531 420.504 41.638 413.893 45.011C410.495 46.744 410 47.439 410 50.476V53.956H415.947H421.895L422.197 85.206C422.486 115.033 422.598 116.638 424.662 120.456C425.852 122.656 428.327 125.896 430.162 127.655C441.587 138.607 465.052 136.555 479.8 123.316C483.903 119.633 484.028 119.356 482.537 117.268L480.974 115.08L476.337 117.131C466.615 121.432 457.89 117.309 456.524 107.769C456.184 105.397 456.04 92.431 456.203 78.956L456.5 54.456L468.75 54.175L481 53.894V49.956V46.018L468.75 45.737L456.5 45.456L456.225 29.206C455.953 13.111 455.929 12.956 453.704 12.956C452.201 12.956 448.489 15.956 442.479 22.029ZM205.5 44.981C197.356 49.564 181.424 56.13 171.751 58.889L165.002 60.814L164.42 58.135C162.129 47.601 156.167 42.942 145.007 42.966C136.148 42.985 125.602 50.312 121.982 58.963L120.521 62.456L119.834 57.956C119.457 55.481 119.115 51.12 119.074 48.265C119.033 45.41 118.554 42.798 118.008 42.461C117.463 42.124 115.101 43.163 112.758 44.77C106.157 49.3 95.308 54.47 84.944 58.025C79.75 59.807 75.108 61.61 74.628 62.032C74.149 62.454 76.078 63.975 78.914 65.413C87.728 69.879 87.992 70.798 87.996 96.983C88 122.353 87.832 123.027 80.964 125.085C77.812 126.029 77 126.752 77 128.614V130.956H107H137V128.535C137 126.615 136.329 125.97 133.75 125.415C123.236 123.151 122.721 121.623 123.257 94.292C123.713 71.016 124.488 66.377 128.611 62.254C132.075 58.791 133.424 59.774 134.004 66.184C134.735 74.274 139.922 78.956 148.152 78.956C155.48 78.956 164 71.58 164 65.237C164 62.034 164.954 61.955 170.543 64.696C179.045 68.866 179.197 69.453 178.821 96.603C178.46 122.639 178.366 122.972 170.841 124.999C167.707 125.843 167 126.486 167 128.495V130.956H196.5H226V128.456C226 126.832 225.44 125.956 224.401 125.956C221.398 125.956 216.279 122.864 215.139 120.361C214.35 118.631 214 106.034 214 79.409C214 58.26 213.663 40.975 213.25 40.998C212.837 41.022 209.35 42.814 205.5 44.981ZM383.5 47.371C376.9 50.776 366.325 55.273 360 57.363C353.675 59.454 348.35 61.305 348.167 61.477C347.984 61.648 349.799 62.658 352.2 63.72C354.601 64.782 357.789 67.105 359.283 68.881L362 72.109V94.986C362 109.624 361.6 118.74 360.89 120.299C359.817 122.652 358.647 123.445 352.75 125.81C351.021 126.504 350 127.663 350 128.935C350 130.917 350.564 130.956 379 130.956H408V128.535C408 126.683 407.326 125.967 405.126 125.484C403.545 125.136 401.182 123.715 399.876 122.325L397.5 119.797L397.217 80.376C397.061 58.695 396.611 41.006 396.217 41.068C395.823 41.129 390.1 43.966 383.5 47.371ZM268.5 44.503C263.948 48.258 248.641 55.527 238.046 58.964C232.847 60.65 228.439 62.184 228.251 62.372C228.063 62.56 230.337 64.084 233.304 65.759C241.654 70.471 242.003 71.73 241.985 97.107C241.968 121.478 241.676 122.683 235.226 124.925C231.923 126.074 231 126.892 231 128.675V130.956H259.5H288V128.614C288 126.752 287.188 126.029 284.036 125.085C277.091 123.004 277 122.609 277 94.549C277 71.226 277.138 69.302 279.102 65.244C282.355 58.526 289.419 56.053 295.855 59.381C301.228 62.159 301.457 63.677 301.805 98.706L302.125 130.956H324.563H347V128.456C347 127.081 346.506 125.956 345.901 125.956C342.878 125.956 338.055 122.554 337.07 119.726C336.42 117.861 336 106.774 336 91.466C336 64.3 335.431 60.228 330.62 52.957C322.063 40.027 292.766 39.84 277.637 52.618L274.5 55.267L274.24 51.862C273.801 46.11 272.944 41.954 272.205 41.992C271.817 42.012 270.15 43.142 268.5 44.503ZM483 48.271C483 49.919 483.98 51.053 486.401 52.207C488.271 53.099 490.972 55.364 492.404 57.241C495.687 61.545 529.841 130.913 530.638 134.894C531.765 140.533 521.998 156.956 517.517 156.956C516.85 156.956 515.507 155.189 514.533 153.029C511.715 146.78 507.885 143.747 502.111 143.193C485.444 141.591 481.12 164.942 496.844 171.637C501.948 173.811 510.898 173.485 516.888 170.909C523.683 167.986 531.452 159.469 536.258 149.675C538.325 145.463 544.011 132.665 548.894 121.236C565.736 81.816 575.198 60.983 578.039 57.06C579.7 54.768 582.374 52.589 584.445 51.84C587.115 50.874 588 49.982 588 48.255V45.956H570.5H553V48.456C553 50.32 553.528 50.956 555.077 50.956C558.491 50.956 563 56.256 563 60.268C563 64.129 550.915 94.151 549.12 94.749C548.504 94.955 548 94.637 548 94.043C548 93.449 544.4 85.365 540 76.078C535.6 66.791 532 58.04 532 56.631C532 53.71 535.262 50.956 538.723 50.956C540.485 50.956 541 50.391 541 48.456V45.956H512H483V48.271Z" fill="black"/>
</svg>
